<svg width="53" height="40" viewBox="0 0 53 40" fill="none" xmlns="http://www.w3.org/2000/svg">
<g filter="url(#filter0_d_35_409)">
<path d="M47.0454 5.69136C46.8004 4.78269 46.3207 3.9542 45.6541 3.28882C44.9876 2.62343 44.1577 2.1445 43.2475 1.89994C40.7599 0.940553 16.6607 0.470516 9.66896 1.92677C8.7586 2.17142 7.9286 2.65052 7.26205 3.3161C6.59551 3.98169 6.11582 4.8104 5.87101 5.71926C4.74764 10.6375 4.66272 21.2702 5.89896 26.2989C6.14393 27.2076 6.6237 28.0361 7.29023 28.7015C7.95676 29.3668 8.78668 29.8458 9.69691 30.0903C14.6236 31.2225 38.0456 31.3813 43.2754 30.0903C44.1856 29.8458 45.0156 29.3668 45.6821 28.7015C46.3486 28.0361 46.8284 27.2076 47.0734 26.2989C48.2709 20.9407 48.3558 10.9669 47.0454 5.69136V5.69136Z" stroke="white" stroke-linecap="round" stroke-linejoin="round"/>
<path d="M33.5596 15.9946L22.3291 9.56543V22.4238L33.5596 15.9946Z" stroke="white" stroke-linecap="round" stroke-linejoin="round"/>
</g>
<defs>
<filter id="filter0_d_35_409" x="0.5" y="0.5" width="52" height="39" filterUnits="userSpaceOnUse" color-interpolation-filters="sRGB">
<feFlood flood-opacity="0" result="BackgroundImageFix"/>
<feColorMatrix in="SourceAlpha" type="matrix" values="0 0 0 0 0 0 0 0 0 0 0 0 0 0 0 0 0 0 127 0" result="hardAlpha"/>
<feOffset dy="4"/>
<feGaussianBlur stdDeviation="2"/>
<feComposite in2="hardAlpha" operator="out"/>
<feColorMatrix type="matrix" values="0 0 0 0 0 0 0 0 0 0 0 0 0 0 0 0 0 0 0.25 0"/>
<feBlend mode="normal" in2="BackgroundImageFix" result="effect1_dropShadow_35_409"/>
<feBlend mode="normal" in="SourceGraphic" in2="effect1_dropShadow_35_409" result="shape"/>
</filter>
</defs>
</svg>
